<svg xmlns="http://www.w3.org/2000/svg" width="24" height="24">
<path fill="#4285F4" d="M23.52 12.27c0-.82-.07-1.64-.21-2.44H12v4.63h6.48c-.28 1.5-1.16 2.79-2.46 3.64v3h3.98c2.32-2.13 3.52-5.27 3.52-8.83z"></path>
<path fill="#34A853" d="M12 24c3.24 0 5.96-1.07 7.94-2.9l-3.98-3c-1.1.74-2.53 1.2-3.96 1.2-3.04 0-5.62-2.05-6.54-4.8H1.4v3.03C3.36 21.3 7.36 24 12 24z"></path>
<path fill="#FBBC04" d="M5.46 14.5a7.18 7.18 0 010-4.5V7h-4A11.98 11.98 0 000 12c0 1.97.47 3.83 1.46 5.5l4-3z"></path>
<path fill="#EA4335" d="M12 4.8c1.75 0 3.33.6 4.58 1.78l3.42-3.43C17.97.75 15.24 0 12 0 7.36 0 3.36 2.7 1.4 7l4.06 3.03C6.38 6.85 8.96 4.8 12 4.8z"></path>
</svg>
